<?xml version="1.0" encoding="utf-8"?>
<!-- Generator: Adobe Illustrator 26.0.3, SVG Export Plug-In . SVG Version: 6.00 Build 0)  -->
<svg version="1.0" id="katman_1" xmlns="http://www.w3.org/2000/svg" xmlns:xlink="http://www.w3.org/1999/xlink" x="0px" y="0px"
	 viewBox="0 0 800 600" style="enable-background:new 0 0 800 600;" xml:space="preserve">
<style type="text/css">
	.st0{fill:#0081FB;}
	.st1{fill:url(#SVGID_1_);}
	.st2{fill:url(#SVGID_00000104696402423350232470000008377122262856867756_);}
	.st3{fill:#192830;}
</style>
<path class="st0" d="M92.7,320.7c0,7.6,1.7,13.5,3.9,17c2.9,4.6,7.1,6.6,11.5,6.6c5.6,0,10.8-1.4,20.7-15.1
	c7.9-11,17.3-26.4,23.6-36l10.6-16.4c7.4-11.4,16-24,25.8-32.6c8-7,16.7-10.9,25.4-10.9c14.6,0,28.5,8.5,39.2,24.3
	c11.7,17.4,17.3,39.3,17.3,61.9c0,13.4-2.6,23.3-7.2,31.1c-4.4,7.5-12.8,15.1-27.1,15.1v-21.5c12.2,0,15.3-11.2,15.3-24.1
	c0-18.3-4.3-38.6-13.7-53.2c-6.7-10.3-15.3-16.6-24.8-16.6c-10.3,0-18.6,7.8-27.9,21.6c-5,7.4-10,16.3-15.7,26.4l-6.3,11.1
	c-12.6,22.4-15.8,27.5-22.1,35.9c-11.1,14.7-20.5,20.3-32.9,20.3c-14.7,0-24.1-6.4-29.8-16c-4.7-7.8-7-18.1-7-29.9L92.7,320.7z"/>
<linearGradient id="SVGID_1_" gradientUnits="userSpaceOnUse" x1="864.3073" y1="-1301.5356" x2="1765.6165" y2="-1347.0563" gradientTransform="matrix(0.1523 0 0 -0.1523 -17.2126 97.9274)">
	<stop  offset="0" style="stop-color:#0064E1"/>
	<stop  offset="0.4" style="stop-color:#0064E1"/>
	<stop  offset="0.83" style="stop-color:#0073EE"/>
	<stop  offset="1" style="stop-color:#0082FB"/>
</linearGradient>
<path class="st1" d="M88.2,259.2c9.9-15.2,24.1-25.9,40.5-25.9c9.5,0,18.9,2.8,28.7,10.8c10.7,8.8,22.2,23.2,36.5,47l5.1,8.5
	c12.4,20.6,19.4,31.2,23.5,36.2c5.3,6.4,9,8.3,13.8,8.3c12.2,0,15.3-11.2,15.3-24.1l19-0.6c0,13.4-2.6,23.3-7.2,31.1
	c-4.4,7.5-12.8,15.1-27.1,15.1c-8.9,0-16.7-1.9-25.4-10.1c-6.7-6.3-14.5-17.5-20.5-27.5l-17.9-29.9c-9-15-17.2-26.2-22-31.2
	c-5.1-5.4-11.7-12-22.2-12c-8.5,0-15.7,6-21.8,15.1L88.2,259.2z"/>
<linearGradient id="SVGID_00000157288683479129579400000001114638583339183004_" gradientUnits="userSpaceOnUse" x1="769.1198" y1="-1522.0797" x2="769.1198" y2="-1189.7788" gradientTransform="matrix(0.1523 0 0 -0.1523 -17.2126 97.9274)">
	<stop  offset="0" style="stop-color:#0082FB"/>
	<stop  offset="1" style="stop-color:#0064E0"/>
</linearGradient>
<path style="fill:url(#SVGID_00000157288683479129579400000001114638583339183004_);" d="M128.3,255c-8.5,0-15.7,6-21.8,15.1
	C98,283,92.7,302.2,92.7,320.7c0,7.6,1.7,13.5,3.9,17l-18.4,12.1c-4.7-7.8-7-18.1-7-29.9c0-21.3,5.9-43.5,17-60.7
	c9.9-15.2,24.1-25.9,40.5-25.9L128.3,255z"/>
<path class="st3" d="M312.4,237.6h24.9l42.4,76.6l42.4-76.6h24.4v125.9h-20.3V267L389,333.8h-19.1L332.8,267v96.5h-20.3V237.6z
	 M510.1,284.5c-14.6,0-23.4,11-25.5,24.5h49.5C533.1,295.1,525,284.5,510.1,284.5z M464.5,316.8c0-28.6,18.5-49.4,46-49.4
	c27,0,43.2,20.5,43.2,50.9v5.6h-69c2.4,14.8,12.3,24.7,28.1,24.7c12.6,0,20.5-3.8,28-10.9l10.8,13.2c-10.2,9.4-23.1,14.7-39.5,14.7
	C482.2,365.7,464.5,344,464.5,316.8z M578.3,286.3h-18.7v-16.6h18.7v-27.5h19.6v27.5h28.4v16.6h-28.4v42.2
	c0,14.4,4.6,19.5,15.9,19.5c5.2,0,8.1-0.4,12.5-1.2v16.5c-5.4,1.5-10.6,2.2-16.3,2.2c-21.2,0-31.7-11.6-31.7-34.7L578.3,286.3z
	 M708.8,302.5c-3.9-9.9-12.7-17.3-25.6-17.3c-16.8,0-27.5,11.9-27.5,31.3c0,18.9,9.9,31.4,26.7,31.4c13.2,0,22.7-7.7,26.4-17.3
	V302.5z M728.4,363.5h-19.2v-13.1c-5.4,7.7-15.2,15.4-31,15.4c-25.5,0-42.5-21.3-42.5-49.2c0-28.1,17.5-49.1,43.6-49.1
	c12.9,0,23.1,5.2,29.9,14.3v-12h19.2V363.5z"/>
</svg>
